# Blender v2.81 (sub 16) OBJ File: ''
# www.blender.org
mtllib BorderCube.mtl
o Cube
v 7.000000 6.611497 -6.611497
v 7.000000 -6.611497 -6.611497
v 7.000000 6.611497 6.611497
v 7.000000 -6.611497 6.611497
v -7.000000 6.611497 -6.611497
v -7.000000 -6.611497 -6.611497
v -7.000000 6.611497 6.611497
v -7.000000 -6.611497 6.611497
v -7.000000 5.950347 -5.950347
v -7.000000 -5.950347 -5.950347
v -7.000000 5.950347 5.950347
v -7.000000 -5.950347 5.950347
v 7.000000 5.950347 -5.950347
v 7.000000 -5.950347 -5.950347
v 7.000000 5.950347 5.950347
v 7.000000 -5.950347 5.950347
vt 0.625000 0.500000
vt 0.875000 0.500000
vt 0.875000 0.750000
vt 0.625000 0.750000
vt 0.375000 0.750000
vt 0.625000 1.000000
vt 0.375000 1.000000
vt 0.625000 1.000000
vt 0.375000 1.000000
vt 0.125000 0.500000
vt 0.375000 0.500000
vt 0.125000 0.750000
vt 0.625000 0.250000
vt 0.375000 0.250000
vt 0.375000 0.250000
vt 0.625000 0.250000
vt 0.125000 0.750000
vt 0.125000 0.500000
vt 0.875000 0.500000
vt 0.875000 0.750000
vt 0.625000 0.750000
vt 0.625000 0.500000
vt 0.375000 0.750000
vt 0.375000 0.500000
vn 0.0000 1.0000 0.0000
vn 0.0000 0.0000 1.0000
vn -1.0000 0.0000 0.0000
vn 0.0000 -1.0000 0.0000
vn 0.0000 0.0000 -1.0000
vn 1.0000 -0.0000 0.0000
usemtl Material
s off
f 1/1/1 5/2/1 7/3/1 3/4/1
f 4/5/2 3/4/2 7/6/2 8/7/2
f 8/7/3 7/6/3 11/8/3 12/9/3
f 6/10/4 2/11/4 4/5/4 8/12/4
f 5/13/3 6/14/3 10/15/3 9/16/3
f 6/14/5 5/13/5 1/1/5 2/11/5
f 6/10/3 8/12/3 12/17/3 10/18/3
f 7/3/3 5/2/3 9/19/3 11/20/3
f 1/1/6 3/4/6 15/21/6 13/22/6
f 3/4/6 4/5/6 16/23/6 15/21/6
f 2/11/6 1/1/6 13/22/6 14/24/6
f 4/5/6 2/11/6 14/24/6 16/23/6
f 10/15/2 14/24/2 13/22/2 9/16/2
f 10/15/1 12/17/1 16/23/1 14/24/1
f 12/17/5 11/8/5 15/21/5 16/23/5
f 11/8/4 9/16/4 13/22/4 15/21/4
